bw_sq_01
version=1
nRows=25
nColumns=46
inDegrees=yes
endheader
time	ground_force3_vx	ground_force3_vy	ground_force3_vz	ground_force3_px	ground_force3_py	ground_force3_pz	ground_torque3_x	ground_torque3_y	ground_torque3_z	ground_force5_vx	ground_force5_vy	ground_force5_vz	ground_force5_px	ground_force5_py	ground_force5_pz	ground_torque5_x	ground_torque5_y	ground_torque5_z	ground_force4_vx	ground_force4_vy	ground_force4_vz	ground_force4_px	ground_force4_py	ground_force4_pz	ground_torque4_x	ground_torque4_y	ground_torque4_z	ground_force1_vx	ground_force1_vy	ground_force1_vz	ground_force1_px	ground_force1_py	ground_force1_pz	ground_torque1_x	ground_torque1_y	ground_torque1_z	ground_force2_vx	ground_force2_vy	ground_force2_vz	ground_force2_px	ground_force2_py	ground_force2_pz	ground_torque2_x	ground_torque2_y	ground_torque2_z
1.917000	-0.000000	-0.000000	0.000000	0.200000	0.000000	-0.300000	0.000000	0.000000	-0.000000	-3.318497	412.725525	24.346140	0.248090	0.000000	-1.311992	0.000022	-1.231891	0.000009	12.388981	295.726318	-22.412457	0.231140	0.000000	-1.054653	0.000025	2.998833	0.000005	-0.000000	-0.000000	0.000000	0.200000	0.000000	0.904000	0.000000	0.000000	-0.000000	-0.000000	-0.000000	0.000000	0.400000	0.000000	0.302000	0.000000	0.000000	-0.000000	
1.918000	-0.000000	-0.000000	0.000000	0.200000	0.000000	-0.300000	0.000000	0.000000	-0.000000	-3.156264	413.999084	25.310699	0.247602	0.000000	-1.312528	0.000011	-1.355406	0.000001	11.579135	293.809662	-22.571972	0.230994	0.000000	-1.054843	0.000014	3.146724	0.000002	-0.000000	-0.000000	0.000000	0.200000	0.000000	0.904000	0.000000	0.000000	-0.000000	-0.000000	-0.000000	0.000000	0.400000	0.000000	0.302000	0.000000	0.000000	-0.000000	
1.919000	-0.000000	-0.000000	0.000000	0.200000	0.000000	-0.300000	0.000000	0.000000	-0.000000	-3.156264	413.679840	24.185606	0.247904	0.000000	-1.313439	0.000009	-1.325685	-0.000000	11.579135	295.419891	-22.894062	0.229629	0.000000	-1.053377	0.000006	3.142308	0.000001	-0.000000	-0.000000	0.000000	0.200000	0.000000	0.904000	0.000000	0.000000	-0.000000	-0.000000	-0.000000	0.000000	0.400000	0.000000	0.302000	0.000000	0.000000	-0.000000	
1.920000	-0.000000	-0.000000	0.000000	0.200000	0.000000	-0.300000	0.000000	0.000000	-0.000000	-2.834348	413.355652	24.185946	0.247208	0.000000	-1.314137	0.000013	-1.207096	0.000007	11.421181	293.492798	-22.571972	0.230934	0.000000	-1.053850	0.000043	3.342519	0.000003	-0.000000	-0.000000	0.000000	0.200000	0.000000	0.904000	0.000000	0.000000	-0.000000	-0.000000	-0.000000	0.000000	0.400000	0.000000	0.302000	0.000000	0.000000	-0.000000	
1.921000	-0.000000	-0.000000	0.000000	0.200000	0.000000	-0.300000	0.000000	0.000000	-0.000000	-2.028284	414.635193	24.346817	0.247649	0.000000	-1.313375	0.000036	-1.215827	0.000007	11.741722	296.694092	-22.572990	0.230963	0.000000	-1.051586	0.000026	3.153296	0.000001	-0.000000	-0.000000	0.000000	0.200000	0.000000	0.904000	0.000000	0.000000	-0.000000	-0.000000	-0.000000	0.000000	0.400000	0.000000	0.302000	0.000000	0.000000	-0.000000	
1.922000	-0.000000	-0.000000	0.000000	0.200000	0.000000	-0.300000	0.000000	0.000000	-0.000000	-2.511922	413.996399	23.863861	0.247335	0.000000	-1.314170	0.000016	-1.275293	0.000004	11.744810	294.451813	-22.252943	0.230528	0.000000	-1.053984	0.000012	3.157371	0.000005	-0.000000	-0.000000	0.000000	0.200000	0.000000	0.904000	0.000000	0.000000	-0.000000	-0.000000	-0.000000	0.000000	0.400000	0.000000	0.302000	0.000000	0.000000	-0.000000	
1.923000	-0.000000	-0.000000	0.000000	0.200000	0.000000	-0.300000	0.000000	0.000000	-0.000000	-1.223748	414.313293	23.703327	0.247350	0.000000	-1.313820	0.000004	-1.069462	0.000009	10.770833	295.410828	-21.928814	0.230705	0.000000	-1.052207	0.000021	3.265558	0.000006	-0.000000	-0.000000	0.000000	0.200000	0.000000	0.904000	0.000000	0.000000	-0.000000	-0.000000	-0.000000	0.000000	0.400000	0.000000	0.302000	0.000000	0.000000	-0.000000	
1.924000	-0.000000	-0.000000	0.000000	0.200000	0.000000	-0.300000	0.000000	0.000000	-0.000000	-1.866562	412.395325	23.703663	0.246999	0.000000	-1.312397	0.000037	-1.276055	0.000005	11.738633	292.210541	-22.734545	0.230988	0.000000	-1.056978	0.000033	2.947203	0.000007	-0.000000	-0.000000	0.000000	0.200000	0.000000	0.904000	0.000000	0.000000	-0.000000	-0.000000	-0.000000	0.000000	0.400000	0.000000	0.302000	0.000000	0.000000	-0.000000	
1.925000	-0.000000	-0.000000	0.000000	0.200000	0.000000	-0.300000	0.000000	0.000000	-0.000000	-1.705349	413.988403	24.024734	0.246906	0.000000	-1.313033	-0.000001	-1.327716	0.000005	11.418093	293.170868	-22.413477	0.230506	0.000000	-1.056633	0.000037	3.070694	0.000003	-0.000000	-0.000000	0.000000	0.200000	0.000000	0.904000	0.000000	0.000000	-0.000000	-0.000000	-0.000000	0.000000	0.400000	0.000000	0.302000	0.000000	0.000000	-0.000000	
1.926000	-0.000000	-0.000000	0.000000	0.200000	0.000000	-0.300000	0.000000	0.000000	-0.000000	-1.704841	413.669556	24.346479	0.246688	0.000000	-1.312621	0.000039	-1.363863	0.000005	11.089829	294.451111	-22.251923	0.230850	0.000000	-1.054897	0.000012	2.968324	0.000005	-0.000000	-0.000000	0.000000	0.200000	0.000000	0.904000	0.000000	0.000000	-0.000000	-0.000000	-0.000000	0.000000	0.400000	0.000000	0.302000	0.000000	0.000000	-0.000000	
1.927000	-0.000000	-0.000000	0.000000	0.200000	0.000000	-0.300000	0.000000	0.000000	-0.000000	-0.577879	413.353302	23.060169	0.247280	0.000000	-1.312842	0.000037	-1.211521	0.000001	10.767744	293.170227	-22.734545	0.231221	0.000000	-1.053808	-0.000008	3.136183	0.000003	-0.000000	-0.000000	0.000000	0.200000	0.000000	0.904000	0.000000	0.000000	-0.000000	-0.000000	-0.000000	0.000000	0.400000	0.000000	0.302000	0.000000	0.000000	-0.000000	
1.928000	-0.000000	-0.000000	0.000000	0.200000	0.000000	-0.300000	0.000000	0.000000	-0.000000	-0.254944	414.307648	22.899635	0.246939	0.000000	-1.312456	0.000057	-1.244083	0.000006	11.091373	294.125519	-21.768280	0.231405	0.000000	-1.056136	0.000002	3.035750	0.000004	-0.000000	-0.000000	0.000000	0.200000	0.000000	0.904000	0.000000	0.000000	-0.000000	-0.000000	-0.000000	0.000000	0.400000	0.000000	0.302000	0.000000	0.000000	-0.000000	
1.929000	-0.000000	-0.000000	0.000000	0.200000	0.000000	-0.300000	0.000000	0.000000	-0.000000	-0.737055	412.706207	24.024395	0.246655	0.000000	-1.311593	0.000002	-1.498590	0.000006	10.606701	295.090576	-22.089348	0.230727	0.000000	-1.054514	0.000022	3.193190	0.000002	-0.000000	-0.000000	0.000000	0.200000	0.000000	0.904000	0.000000	0.000000	-0.000000	-0.000000	-0.000000	0.000000	0.400000	0.000000	0.302000	0.000000	0.000000	-0.000000	
1.930000	-0.000000	-0.000000	0.000000	0.200000	0.000000	-0.300000	0.000000	0.000000	-0.000000	-0.092203	413.348633	23.541775	0.246993	0.000000	-1.313487	0.000035	-1.546676	0.000005	10.606701	296.049591	-21.767262	0.231231	0.000000	-1.053643	0.000004	3.203619	0.000001	-0.000000	-0.000000	0.000000	0.200000	0.000000	0.904000	0.000000	0.000000	-0.000000	-0.000000	-0.000000	0.000000	0.400000	0.000000	0.302000	0.000000	0.000000	-0.000000	
1.931000	-0.000000	-0.000000	0.000000	0.200000	0.000000	-0.300000	0.000000	0.000000	-0.000000	0.389908	413.663849	21.935078	0.246578	0.000000	-1.313316	0.000027	-1.235367	0.000004	10.767744	297.007233	-21.282598	0.231446	0.000000	-1.054631	-0.000004	3.183961	0.000007	-0.000000	-0.000000	0.000000	0.200000	0.000000	0.904000	0.000000	0.000000	-0.000000	-0.000000	-0.000000	0.000000	0.400000	0.000000	0.302000	0.000000	0.000000	-0.000000	
1.932000	-0.000000	-0.000000	0.000000	0.200000	0.000000	-0.300000	0.000000	0.000000	-0.000000	0.230222	413.980774	22.095612	0.246264	0.000000	-1.312903	0.000028	-1.446432	0.000004	10.763111	294.125183	-21.122065	0.231383	0.000000	-1.055552	0.000003	2.954930	0.000006	-0.000000	-0.000000	0.000000	0.200000	0.000000	0.904000	0.000000	0.000000	-0.000000	-0.000000	-0.000000	0.000000	0.400000	0.000000	0.302000	0.000000	0.000000	-0.000000	
1.933000	-0.000000	-0.000000	0.000000	0.200000	0.000000	-0.300000	0.000000	0.000000	-0.000000	0.229204	414.299683	22.898964	0.246140	0.000000	-1.313139	0.000029	-1.371432	0.000005	10.928786	294.130554	-21.443132	0.231194	0.000000	-1.055144	-0.000004	3.140472	0.000004	-0.000000	-0.000000	0.000000	0.200000	0.000000	0.904000	0.000000	0.000000	-0.000000	-0.000000	-0.000000	0.000000	0.400000	0.000000	0.302000	0.000000	0.000000	-0.000000	
1.934000	-0.000000	-0.000000	0.000000	0.200000	0.000000	-0.300000	0.000000	0.000000	-0.000000	0.712333	412.386017	22.577553	0.246425	0.000000	-1.312158	0.000036	-1.302498	0.000002	10.441026	295.408813	-20.318375	0.231440	0.000000	-1.055132	0.000019	2.991447	0.000004	-0.000000	-0.000000	0.000000	0.200000	0.000000	0.904000	0.000000	0.000000	-0.000000	-0.000000	-0.000000	0.000000	0.400000	0.000000	0.302000	0.000000	0.000000	-0.000000	
1.935000	-0.000000	-0.000000	0.000000	0.200000	0.000000	-0.300000	0.000000	0.000000	-0.000000	0.389908	413.341705	22.256485	0.246017	0.000000	-1.312885	0.000032	-1.237652	0.000006	9.956353	297.003540	-21.123085	0.231828	0.000000	-1.053650	-0.000019	3.164850	0.000001	-0.000000	-0.000000	0.000000	0.200000	0.000000	0.904000	0.000000	0.000000	-0.000000	-0.000000	-0.000000	0.000000	0.400000	0.000000	0.302000	0.000000	0.000000	-0.000000	
1.936000	-0.000000	-0.000000	0.000000	0.200000	0.000000	-0.300000	0.000000	0.000000	-0.000000	0.874564	414.297028	22.256145	0.245869	0.000000	-1.312850	0.000028	-1.405752	0.000003	9.956353	298.610077	-20.797935	0.231156	0.000000	-1.052050	0.000027	3.272524	0.000005	-0.000000	-0.000000	0.000000	0.200000	0.000000	0.904000	0.000000	0.000000	-0.000000	-0.000000	-0.000000	0.000000	0.400000	0.000000	0.302000	0.000000	0.000000	-0.000000	
1.937000	-0.000000	-0.000000	0.000000	0.200000	0.000000	-0.300000	0.000000	0.000000	-0.000000	1.196990	414.615906	21.452120	0.245783	0.000000	-1.313311	0.000028	-1.428368	0.000004	10.603613	295.403076	-20.154779	0.231883	0.000000	-1.056015	-0.000012	3.090178	0.000002	-0.000000	-0.000000	0.000000	0.200000	0.000000	0.904000	0.000000	0.000000	-0.000000	-0.000000	-0.000000	0.000000	0.400000	0.000000	0.302000	0.000000	0.000000	-0.000000	
1.938000	-0.000000	-0.000000	0.000000	0.200000	0.000000	-0.300000	0.000000	0.000000	-0.000000	1.519924	414.608246	22.256145	0.245138	0.000000	-1.312801	0.000032	-1.459390	0.000005	9.956353	295.723633	-20.798956	0.231610	0.000000	-1.056669	0.000025	3.197359	0.000003	-0.000000	-0.000000	0.000000	0.200000	0.000000	0.904000	0.000000	0.000000	-0.000000	-0.000000	-0.000000	0.000000	0.400000	0.000000	0.302000	0.000000	0.000000	-0.000000	
1.939000	-0.000000	-0.000000	0.000000	0.200000	0.000000	-0.300000	0.000000	0.000000	-0.000000	0.714880	413.656555	21.452459	0.245421	0.000000	-1.313681	0.000061	-1.570678	0.000009	9.956353	297.004211	-19.671139	0.231798	0.000000	-1.054322	0.000012	3.208528	0.000003	-0.000000	-0.000000	0.000000	0.200000	0.000000	0.904000	0.000000	0.000000	-0.000000	-0.000000	-0.000000	0.000000	0.400000	0.000000	0.302000	0.000000	0.000000	-0.000000	
1.940000	-0.000000	-0.000000	0.000000	0.200000	0.000000	-0.300000	0.000000	0.000000	-0.000000	1.358711	413.969818	21.291248	0.245026	0.000000	-1.312584	0.000023	-1.488994	0.000007	9.470137	297.646698	-19.832691	0.231215	0.000000	-1.054031	0.000018	3.226711	0.000003	-0.000000	-0.000000	0.000000	0.200000	0.000000	0.904000	0.000000	0.000000	-0.000000	-0.000000	-0.000000	0.000000	0.400000	0.000000	0.302000	0.000000	0.000000	-0.000000	
1.941000	-0.000000	-0.000000	0.000000	0.200000	0.000000	-0.300000	0.000000	0.000000	-0.000000	1.842350	413.653229	21.934738	0.245540	0.000000	-1.311803	-0.000016	-1.454737	0.000005	9.467049	295.405762	-19.993225	0.231571	0.000000	-1.054133	-0.000001	3.128152	0.000006	-0.000000	-0.000000	0.000000	0.200000	0.000000	0.904000	0.000000	0.000000	-0.000000	-0.000000	-0.000000	0.000000	0.400000	0.000000	0.302000	0.000000	0.000000	-0.000000	
